<?xml version="1.0" standalone="no"?>
<!DOCTYPE svg PUBLIC "-//W3C//DTD SVG 20010904//EN"
 "http://www.w3.org/TR/2001/REC-SVG-20010904/DTD/svg10.dtd">
<svg version="1.0" xmlns="http://www.w3.org/2000/svg"
 width="64.000000pt" height="64.000000pt" viewBox="0 0 64.000000 64.000000"
 preserveAspectRatio="xMidYMid meet">

<g transform="translate(0.000000,64.000000) scale(0.100000,-0.100000)"
fill="#000000" stroke="none">
<path d="M260 605 c0 -10 -10 -15 -30 -15 -23 0 -30 -5 -30 -19 0 -10 -7 -21
-15 -25 -11 -4 -15 -22 -15 -72 0 -61 -5 -76 -52 -171 -52 -102 -53 -104 -33
-119 11 -8 30 -12 42 -9 23 5 32 -8 13 -20 -18 -11 -11 -53 10 -60 11 -3 20
-11 20 -16 0 -5 5 -9 11 -9 6 0 28 -13 48 -29 26 -21 41 -27 52 -20 7 5 26 7
40 4 17 -4 30 0 39 10 7 8 19 15 27 15 7 0 16 7 19 15 4 8 15 15 25 15 10 0
19 5 19 10 0 6 6 10 14 10 25 0 41 29 28 50 -13 21 -2 33 20 25 8 -3 25 2 37
12 l23 19 -51 103 c-40 82 -51 114 -51 152 l0 49 -60 0 c-53 0 -60 2 -60 20 0
11 -4 20 -10 20 -5 0 -10 9 -10 20 0 15 -7 20 -25 20 -16 0 -25 6 -25 15 0 8
-4 15 -10 15 -5 0 -10 -7 -10 -15z m50 -40 c0 -11 -12 -15 -50 -15 -38 0 -50
4 -50 15 0 11 12 15 50 15 38 0 50 -4 50 -15z m30 -114 l0 -79 -47 -15 -46
-15 -29 30 c-25 27 -28 38 -28 94 l0 64 75 0 75 0 0 -79z m110 -1 c0 -39 -4
-52 -20 -60 -11 -6 -20 -17 -20 -25 0 -16 -18 -19 -44 -9 -12 5 -16 21 -16 68
0 35 3 66 7 69 3 4 26 7 50 7 l43 0 0 -50z m60 -151 c33 -73 39 -93 28 -100
-22 -15 -30 -6 -71 85 -34 72 -38 89 -26 97 8 5 17 9 20 9 3 0 25 -41 49 -91z
m-316 75 c23 -9 21 -17 -30 -110 -41 -75 -48 -83 -65 -73 -19 10 -18 14 28
100 26 49 49 89 50 89 1 0 8 -3 17 -6z m232 -38 c0 0 15 -32 33 -70 45 -99 28
-106 -58 -23 -78 75 -106 84 -122 38 -10 -27 -36 -48 -47 -37 -2 3 2 22 10 43
21 51 49 64 123 57 33 -4 60 -7 61 -8z m-186 -10 c0 -2 -7 -22 -14 -44 -10
-27 -11 -44 -5 -48 19 -12 60 7 69 31 5 14 17 25 26 25 9 0 53 -36 98 -79 67
-66 78 -81 63 -87 -12 -4 -26 1 -41 15 -31 30 -45 26 -16 -4 18 -19 21 -28 12
-37 -9 -9 -16 -8 -30 5 -26 24 -39 21 -17 -3 14 -16 16 -23 7 -32 -9 -9 -17
-7 -32 7 -11 10 -23 15 -27 11 -4 -4 -1 -11 6 -16 19 -11 6 -41 -14 -34 -8 3
-15 11 -15 18 0 6 -13 26 -30 44 -16 18 -30 37 -30 42 0 5 -6 13 -13 17 -8 4
-17 16 -20 27 -6 14 -14 17 -37 12 -17 -3 -30 -3 -30 -1 0 18 67 135 77 135 7
0 13 -2 13 -4z m-36 -144 c6 -10 -33 -72 -44 -72 -18 0 -18 17 2 48 20 32 32
39 42 24z m26 -50 c0 -25 -35 -58 -45 -42 -8 12 20 60 35 60 6 0 10 -8 10 -18z
m30 -31 c0 -21 -13 -41 -26 -41 -17 0 -18 22 -2 38 14 14 28 16 28 3z m30 -45
c0 -18 -16 -29 -30 -21 -13 8 -1 35 16 35 8 0 14 -6 14 -14z"/>
<path d="M220 490 c0 -5 20 -10 45 -10 25 0 45 5 45 10 0 6 -20 10 -45 10 -25
0 -45 -4 -45 -10z"/>
<path d="M233 443 c15 -2 39 -2 55 0 15 2 2 4 -28 4 -30 0 -43 -2 -27 -4z"/>
<path d="M220 400 c0 -5 20 -10 45 -10 25 0 45 5 45 10 0 6 -20 10 -45 10 -25
0 -45 -4 -45 -10z"/>
<path d="M370 460 c0 -5 14 -10 30 -10 17 0 30 5 30 10 0 6 -13 10 -30 10 -16
0 -30 -4 -30 -10z"/>
<path d="M388 413 c12 -2 30 -2 40 0 9 3 -1 5 -23 4 -22 0 -30 -2 -17 -4z"/>
<path d="M370 370 c0 -5 7 -10 15 -10 8 0 15 5 15 10 0 6 -7 10 -15 10 -8 0
-15 -4 -15 -10z"/>
</g>
</svg>
