<svg width="1139" height="413" viewBox="0 0 1139 413" fill="none" xmlns="http://www.w3.org/2000/svg">
<rect x="44.6271" width="43.6271" height="46.5036" fill="#FF6523"/>
<rect x="44.6271" y="90.1309" width="43.6271" height="44.1065" fill="#FF6523"/>
<rect x="88.2542" y="46.5034" width="43.6271" height="44.1065" fill="#FF6C2E"/>
<rect x="88.2542" y="134.237" width="43.6271" height="44.1065" fill="#FF6C2E"/>
<rect x="88" y="222" width="43.6271" height="44.1065" fill="#FF6C2E"/>
<rect x="89" y="310" width="43.6271" height="44.1065" fill="#FF6C2E"/>
<rect x="88" y="398" width="44" height="15" fill="#FF6C2E"/>
<rect x="131.881" width="43.6271" height="46.0242" fill="#FF7235"/>
<rect x="131.881" y="90.6104" width="43.6271" height="44.1065" fill="#FF7235"/>
<rect x="220" y="266" width="43.6271" height="44.1065" fill="#FF783E"/>
<rect x="220" y="266" width="43.6271" height="44.1065" fill="#FF783E"/>
<rect x="216" y="352" width="43.6271" height="44.1065" fill="#FF783E"/>
<rect x="216" y="352" width="43.6271" height="44.1065" fill="#FF783E"/>
<rect x="176" y="133" width="43.6271" height="44.1065" fill="#FF7539"/>
<rect x="176" y="222" width="43.6271" height="44.1065" fill="#FF7539"/>
<rect x="176" y="310" width="43.6271" height="44.1065" fill="#FF7539"/>
<rect x="177" y="398" width="44" height="15" fill="#FF7539"/>
<rect x="176" y="47" width="43.6271" height="44.1065" fill="#FF7539"/>
<rect x="221" y="86" width="43.6271" height="44.1065" fill="#FF783E"/>
<rect x="216" y="178" width="43.6271" height="44.1065" fill="#FF783E"/>
<rect x="216" y="3" width="43.6271" height="44.1065" fill="#FF783E"/>
<rect x="132" y="177" width="43.6271" height="44.1065" fill="#FF7235"/>
<rect x="133" y="266" width="43.6271" height="44.1065" fill="#FF7235"/>
<rect x="132" y="354" width="43.6271" height="44.1065" fill="#FF7235"/>
<rect x="1" y="46.5034" width="43.6271" height="44.1065" fill="#FF6523"/>
<rect x="1" y="134.237" width="43.6271" height="44.1065" fill="#FF6523"/>
<rect y="222" width="43.6271" height="44.1065" fill="#FF6523"/>
<rect x="1" y="310" width="43.6271" height="44.1065" fill="#FF6523"/>
<rect y="398" width="44" height="15" fill="#FF6523"/>
<rect x="44" y="178" width="43.6271" height="44.1065" fill="#FF6523"/>
<rect x="45" y="266" width="43.6271" height="44.1065" fill="#FF6523"/>
<rect x="44" y="354" width="43.6271" height="44.1065" fill="#FF6523"/>
<path d="M1048 319C1098.26 319 1139 359.742 1139 410V410H1047V319H1048Z" fill="#FF6523"/>
<path d="M975.897 1.90723C1026.15 1.90723 1066.9 42.6493 1066.9 92.9072V92.9072L974.897 92.9072V1.90723H975.897Z" fill="#FF6523"/>
<rect x="1042" y="158" width="80" height="66" fill="#FF6523"/>
</svg>
