<svg width="98" height="54" viewBox="0 0 98 54" fill="none" xmlns="http://www.w3.org/2000/svg">
<path d="M7.52791 38.852C4.30898 35.6184 2.69951 31.7557 2.69951 27.2638C2.69951 22.7719 4.30898 18.9165 7.52791 15.6976C10.7468 12.4787 14.6022 10.8692 19.0941 10.8692C22.752 10.8692 26.0807 12.0032 29.0801 14.271L26.4684 16.8828C24.1859 15.1416 21.7278 14.271 19.0941 14.271C15.685 14.271 12.7733 15.544 10.3591 18.0899C7.94491 20.6357 6.73781 23.6937 6.73781 27.2638C6.73781 30.8339 7.94491 33.8919 10.3591 36.4378C12.7733 38.9837 15.685 40.2566 19.0941 40.2566C21.7863 40.2566 24.2444 39.4007 26.4684 37.6888L29.0801 40.3005C26.0514 42.5537 22.7227 43.6804 19.0941 43.6804C14.6022 43.6804 10.7468 42.0709 7.52791 38.852Z" fill="black"/>
<circle cx="13.4742" cy="26.5753" r="3.88177" stroke="#FE7B43" stroke-width="1.09249"/>
<circle cx="26.7581" cy="26.5753" r="3.88177" stroke="#FE7B43" stroke-width="1.09249"/>
<mask id="path-4-outside-1_30_4" maskUnits="userSpaceOnUse" x="15.795" y="22.6971" width="8" height="6" fill="black">
<rect fill="white" x="15.795" y="22.6971" width="8" height="6"/>
<path d="M23.4371 27.6823C23.4371 26.6254 23.0872 25.6117 22.4644 24.8643C21.8416 24.117 20.9968 23.6971 20.1161 23.6971C19.2353 23.6971 18.3906 24.117 17.7677 24.8643C17.1449 25.6117 16.795 26.6254 16.795 27.6823L17.388 27.6823C17.388 26.8141 17.6755 25.9814 18.1871 25.3675C18.6987 24.7536 19.3925 24.4087 20.1161 24.4087C20.8396 24.4087 21.5334 24.7536 22.045 25.3675C22.5566 25.9814 22.8441 26.8141 22.8441 27.6823H23.4371Z"/>
</mask>
<path d="M23.4371 27.6823C23.4371 26.6254 23.0872 25.6117 22.4644 24.8643C21.8416 24.117 20.9968 23.6971 20.1161 23.6971C19.2353 23.6971 18.3906 24.117 17.7677 24.8643C17.1449 25.6117 16.795 26.6254 16.795 27.6823L17.388 27.6823C17.388 26.8141 17.6755 25.9814 18.1871 25.3675C18.6987 24.7536 19.3925 24.4087 20.1161 24.4087C20.8396 24.4087 21.5334 24.7536 22.045 25.3675C22.5566 25.9814 22.8441 26.8141 22.8441 27.6823H23.4371Z" fill="#FE7B43"/>
<path d="M23.4371 27.6823C23.4371 26.6254 23.0872 25.6117 22.4644 24.8643C21.8416 24.117 20.9968 23.6971 20.1161 23.6971C19.2353 23.6971 18.3906 24.117 17.7677 24.8643C17.1449 25.6117 16.795 26.6254 16.795 27.6823L17.388 27.6823C17.388 26.8141 17.6755 25.9814 18.1871 25.3675C18.6987 24.7536 19.3925 24.4087 20.1161 24.4087C20.8396 24.4087 21.5334 24.7536 22.045 25.3675C22.5566 25.9814 22.8441 26.8141 22.8441 27.6823H23.4371Z" stroke="#FE7B43" stroke-width="0.624277" mask="url(#path-4-outside-1_30_4)"/>
<path d="M41.6529 20.6262V20.2655H46.3319V20.6262H45.8347C45.3148 20.6262 44.9152 20.8439 44.6357 21.2793C44.4993 21.4808 44.431 21.9487 44.431 22.683V28.0444C44.431 29.3701 44.2978 30.4001 44.0314 31.1345C43.7714 31.8623 43.2548 32.4894 42.4814 33.0158C41.7146 33.5357 40.6683 33.7956 39.3426 33.7956C37.8999 33.7956 36.8049 33.5454 36.0576 33.045C35.3102 32.5447 34.7806 31.872 34.4686 31.0272C34.2607 30.4489 34.1567 29.3636 34.1567 27.7714V22.605C34.1567 21.7927 34.043 21.2598 33.8155 21.0064C33.5946 20.7529 33.2339 20.6262 32.7335 20.6262H32.2364V20.2655H37.9487V20.6262H37.4418C36.8959 20.6262 36.506 20.7984 36.272 21.1428C36.1095 21.3768 36.0283 21.8642 36.0283 22.605V28.366C36.0283 28.8794 36.0738 29.4676 36.1648 30.1304C36.2623 30.7933 36.4345 31.3099 36.6814 31.6803C36.9284 32.0508 37.2825 32.3562 37.7439 32.5966C38.2118 32.8371 38.7837 32.9573 39.4596 32.9573C40.3239 32.9573 41.0972 32.7689 41.7796 32.3919C42.4619 32.015 42.9266 31.5341 43.1735 30.9492C43.427 30.3579 43.5537 29.3603 43.5537 27.9566V22.605C43.5537 21.7797 43.4627 21.2631 43.2808 21.0551C43.0273 20.7692 42.6504 20.6262 42.15 20.6262H41.6529ZM55.4902 29.0582H50.3726L49.4758 31.1442C49.2548 31.6576 49.1443 32.041 49.1443 32.2945C49.1443 32.4959 49.2386 32.6746 49.427 32.8306C49.622 32.9801 50.0379 33.0775 50.6748 33.123V33.4837H46.5124V33.123C47.0648 33.0256 47.4222 32.8988 47.5847 32.7429C47.9161 32.4309 48.2833 31.7973 48.6862 30.842L53.3359 19.9633H53.6771L58.2781 30.959C58.6485 31.8428 58.9832 32.4179 59.2822 32.6844C59.5876 32.9443 60.01 33.0905 60.5494 33.123V33.4837H55.3343V33.123C55.8606 33.097 56.2148 33.0093 56.3968 32.8598C56.5852 32.7104 56.6795 32.5284 56.6795 32.314C56.6795 32.028 56.5495 31.5764 56.2895 30.959L55.4902 29.0582ZM55.2173 28.3368L52.9753 22.9949L50.6748 28.3368H55.2173ZM69.9125 20.2655L70.0587 23.3654H69.6883C69.6168 22.8195 69.5193 22.4296 69.3958 22.1956C69.1944 21.8187 68.9247 21.5425 68.5867 21.367C68.2553 21.1851 67.8167 21.0941 67.2708 21.0941H65.4089V31.1929C65.4089 32.0053 65.4967 32.5122 65.6721 32.7136C65.9191 32.9866 66.2992 33.123 66.8126 33.123H67.2708V33.4837H61.6657V33.123H62.1336C62.6925 33.123 63.0889 32.9541 63.3229 32.6161C63.4658 32.4082 63.5373 31.9338 63.5373 31.1929V21.0941H61.9484C61.331 21.0941 60.8924 21.1396 60.6324 21.2306C60.2945 21.354 60.0053 21.5912 59.7649 21.9422C59.5244 22.2931 59.3815 22.7675 59.336 23.3654H58.9655L59.1215 20.2655H69.9125ZM74.538 20.9869V26.2118H77.4429C78.1968 26.2118 78.7004 26.098 78.9538 25.8706C79.2918 25.5716 79.4802 25.0453 79.5192 24.2914H79.8799V28.8924H79.5192C79.4282 28.2491 79.3373 27.8364 79.2463 27.6545C79.1293 27.427 78.9376 27.2483 78.6712 27.1183C78.4047 26.9883 77.9953 26.9234 77.4429 26.9234H74.538V31.2807C74.538 31.8655 74.564 32.223 74.616 32.3529C74.668 32.4764 74.759 32.5771 74.889 32.6551C75.0189 32.7266 75.2659 32.7624 75.6298 32.7624H77.8718C78.6192 32.7624 79.1618 32.7104 79.4997 32.6064C79.8377 32.5024 80.1626 32.2977 80.4745 31.9923C80.8774 31.5894 81.2901 30.9817 81.7125 30.1694H82.1024L80.9619 33.4837H70.7753V33.123H71.2432C71.5552 33.123 71.8509 33.0483 72.1303 32.8988C72.3383 32.7949 72.478 32.6389 72.5495 32.4309C72.6274 32.223 72.6664 31.7973 72.6664 31.154V22.566C72.6664 21.7277 72.582 21.2111 72.413 21.0161C72.179 20.7562 71.7891 20.6262 71.2432 20.6262H70.7753V20.2655H80.9619L81.1081 23.1607H80.728C80.5915 22.4653 80.4388 21.9877 80.2698 21.7277C80.1073 21.4678 79.8636 21.2696 79.5387 21.1331C79.2788 21.0356 78.8206 20.9869 78.1643 20.9869H74.538ZM90.5199 26.163L93.3566 30.3936C94.1429 31.5634 94.7245 32.3042 95.1015 32.6161C95.4849 32.9216 95.969 33.0905 96.5539 33.123V33.4837H90.8806V33.123C91.2575 33.1165 91.537 33.0775 91.7189 33.0061C91.8554 32.9476 91.9659 32.8598 92.0504 32.7429C92.1413 32.6194 92.1868 32.4959 92.1868 32.3724C92.1868 32.223 92.1576 32.0735 92.0991 31.924C92.0536 31.8136 91.8749 31.5276 91.563 31.0662L89.3209 27.6739L86.5525 31.2222C86.2601 31.5991 86.0846 31.8526 86.0261 31.9825C85.9677 32.106 85.9384 32.236 85.9384 32.3724C85.9384 32.5804 86.0261 32.7526 86.2016 32.8891C86.3771 33.0256 86.7117 33.1035 87.2056 33.123V33.4837H82.5169V33.123C82.8483 33.0905 83.1343 33.0223 83.3747 32.9183C83.7776 32.7494 84.161 32.5219 84.525 32.236C84.8889 31.95 85.3048 31.5114 85.7727 30.92L88.892 26.9818L86.2893 23.1704C85.581 22.1371 84.9799 21.4613 84.486 21.1428C83.9921 20.8179 83.4235 20.6457 82.7801 20.6262V20.2655H88.892V20.6262C88.3721 20.6457 88.0147 20.7302 87.8198 20.8797C87.6313 21.0291 87.5371 21.1948 87.5371 21.3768C87.5371 21.6172 87.693 21.9682 88.005 22.4296L90.0325 25.4612L92.3818 22.4881C92.6547 22.1371 92.8204 21.8967 92.8789 21.7667C92.9439 21.6367 92.9764 21.5035 92.9764 21.367C92.9764 21.2306 92.9374 21.1104 92.8594 21.0064C92.762 20.8699 92.6385 20.7757 92.489 20.7237C92.3395 20.6652 92.0309 20.6327 91.563 20.6262V20.2655H96.2517V20.6262C95.8813 20.6457 95.5791 20.7042 95.3452 20.8017C94.9942 20.9511 94.6725 21.1526 94.3801 21.406C94.0877 21.6595 93.675 22.1274 93.1421 22.8097L90.5199 26.163Z" fill="black"/>
</svg>
