<svg width="128" height="216" viewBox="0 0 128 216" fill="none" xmlns="http://www.w3.org/2000/svg">
<path d="M29.2122 149.903C16.7211 137.356 10.4755 122.366 10.4755 104.935C10.4755 87.5047 16.7211 72.5437 29.2122 60.0526C41.7033 47.5615 56.6643 41.3159 74.0951 41.3159C88.2895 41.3159 101.206 45.7162 112.846 54.5167L102.711 64.6516C93.8537 57.895 84.3151 54.5167 74.0951 54.5167C60.8658 54.5167 49.567 59.4564 40.1987 69.3358C30.8304 79.2151 26.1462 91.0817 26.1462 104.935C26.1462 118.789 30.8304 130.656 40.1987 140.535C49.567 150.414 60.8658 155.354 74.0951 155.354C84.5422 155.354 94.0809 152.033 102.711 145.39L112.846 155.524C101.093 164.268 88.176 168.64 74.0951 168.64C56.6643 168.64 41.7033 162.395 29.2122 149.903Z" fill="black"/>
<path d="M70.4708 106.31C70.4708 114.872 63.3584 121.894 54.4837 121.894C45.609 121.894 38.4966 114.872 38.4966 106.31C38.4966 97.7481 45.609 90.7261 54.4837 90.7261C63.3584 90.7261 70.4708 97.7481 70.4708 106.31Z" stroke="#FE7B43" stroke-width="4.23941"/>
<path d="M125.094 106.31C125.094 114.872 117.981 121.894 109.107 121.894C100.232 121.894 93.1197 114.872 93.1197 106.31C93.1197 97.7481 100.232 90.7261 109.107 90.7261C117.981 90.7261 125.094 97.7481 125.094 106.31Z" stroke="#FE7B43" stroke-width="4.23941"/>
<mask id="path-4-outside-1_8_2" maskUnits="userSpaceOnUse" x="66" y="92.8027" width="31" height="20" fill="black">
<rect fill="white" x="66" y="92.8027" width="31" height="20"/>
<path d="M95.1602 110.736C95.1602 106.51 93.7295 102.458 91.1827 99.4695C88.6359 96.4814 85.1818 94.8027 81.5801 94.8027C77.9784 94.8027 74.5243 96.4814 71.9775 99.4695C69.4308 102.458 68 106.51 68 110.736L70.4249 110.736C70.4249 107.265 71.6002 103.936 73.6922 101.481C75.7842 99.0268 78.6216 97.6478 81.5801 97.6478C84.5387 97.6478 87.376 99.0268 89.4681 101.481C91.5601 103.936 92.7353 107.265 92.7353 110.736H95.1602Z"/>
</mask>
<path d="M95.1602 110.736C95.1602 106.51 93.7295 102.458 91.1827 99.4695C88.6359 96.4814 85.1818 94.8027 81.5801 94.8027C77.9784 94.8027 74.5243 96.4814 71.9775 99.4695C69.4308 102.458 68 106.51 68 110.736L70.4249 110.736C70.4249 107.265 71.6002 103.936 73.6922 101.481C75.7842 99.0268 78.6216 97.6478 81.5801 97.6478C84.5387 97.6478 87.376 99.0268 89.4681 101.481C91.5601 103.936 92.7353 107.265 92.7353 110.736H95.1602Z" fill="#FE7B43"/>
<path d="M95.1602 110.736C95.1602 106.51 93.7295 102.458 91.1827 99.4695C88.6359 96.4814 85.1818 94.8027 81.5801 94.8027C77.9784 94.8027 74.5243 96.4814 71.9775 99.4695C69.4308 102.458 68 106.51 68 110.736L70.4249 110.736C70.4249 107.265 71.6002 103.936 73.6922 101.481C75.7842 99.0268 78.6216 97.6478 81.5801 97.6478C84.5387 97.6478 87.376 99.0268 89.4681 101.481C91.5601 103.936 92.7353 107.265 92.7353 110.736H95.1602Z" stroke="#FE7B43" stroke-width="2.42252" mask="url(#path-4-outside-1_8_2)"/>
</svg>
