<svg width="265" height="414" viewBox="0 0 265 414" fill="none" xmlns="http://www.w3.org/2000/svg">
<rect x="220" y="413.997" width="43" height="47" transform="rotate(-180 220 413.997)" fill="#FF6523"/>
<rect x="220.128" y="323.587" width="43.6271" height="44.1065" transform="rotate(-180 220.128 323.587)" fill="#FF6523"/>
<rect x="176.501" y="367.215" width="43.6271" height="44.1065" transform="rotate(-180 176.501 367.215)" fill="#FF6C2E"/>
<rect x="176.501" y="279.481" width="43.6271" height="44.1065" transform="rotate(-180 176.501 279.481)" fill="#FF6C2E"/>
<rect x="176.756" y="191.718" width="43.6271" height="44.1065" transform="rotate(-180 176.756 191.718)" fill="#FF6C2E"/>
<rect x="175.756" y="103.718" width="43.6271" height="44.1065" transform="rotate(-180 175.756 103.718)" fill="#FF6C2E"/>
<rect x="176.756" y="15.7183" width="44" height="15" transform="rotate(-180 176.756 15.7183)" fill="#FF6C2E"/>
<rect x="132.874" y="413.718" width="43.6271" height="46.0242" transform="rotate(-180 132.874 413.718)" fill="#FF7235"/>
<rect x="132.874" y="323.108" width="43.6271" height="44.1065" transform="rotate(-180 132.874 323.108)" fill="#FF7235"/>
<rect x="44.7556" y="147.718" width="43.6271" height="44.1065" transform="rotate(-180 44.7556 147.718)" fill="#FF783E"/>
<rect x="44.7556" y="147.718" width="43.6271" height="44.1065" transform="rotate(-180 44.7556 147.718)" fill="#FF783E"/>
<rect x="48.7556" y="61.7183" width="43.6271" height="44.1065" transform="rotate(-180 48.7556 61.7183)" fill="#FF783E"/>
<rect x="48.7556" y="61.7183" width="43.6271" height="44.1065" transform="rotate(-180 48.7556 61.7183)" fill="#FF783E"/>
<rect x="88.7556" y="280.718" width="43.6271" height="44.1065" transform="rotate(-180 88.7556 280.718)" fill="#FF7539"/>
<rect x="88.7556" y="191.718" width="43.6271" height="44.1065" transform="rotate(-180 88.7556 191.718)" fill="#FF7539"/>
<rect x="88.7556" y="103.718" width="43.6271" height="44.1065" transform="rotate(-180 88.7556 103.718)" fill="#FF7539"/>
<rect x="87.7556" y="15.7183" width="44" height="15" transform="rotate(-180 87.7556 15.7183)" fill="#FF7539"/>
<rect x="88.7556" y="366.718" width="43.6271" height="44.1065" transform="rotate(-180 88.7556 366.718)" fill="#FF7539"/>
<rect x="43.7556" y="327.718" width="43.6271" height="44.1065" transform="rotate(-180 43.7556 327.718)" fill="#FF783E"/>
<rect x="48.7556" y="235.718" width="43.6271" height="44.1065" transform="rotate(-180 48.7556 235.718)" fill="#FF783E"/>
<rect x="48.7556" y="410.718" width="43.6271" height="44.1065" transform="rotate(-180 48.7556 410.718)" fill="#FF783E"/>
<rect x="132.756" y="236.718" width="43.6271" height="44.1065" transform="rotate(-180 132.756 236.718)" fill="#FF7235"/>
<rect x="131.756" y="147.718" width="43.6271" height="44.1065" transform="rotate(-180 131.756 147.718)" fill="#FF7235"/>
<rect x="132.756" y="59.7183" width="43.6271" height="44.1065" transform="rotate(-180 132.756 59.7183)" fill="#FF7235"/>
<rect x="263.756" y="367.215" width="43.6271" height="44.1065" transform="rotate(-180 263.756 367.215)" fill="#FF6523"/>
<rect x="263.756" y="279.481" width="43.6271" height="44.1065" transform="rotate(-180 263.756 279.481)" fill="#FF6523"/>
<path d="M242 390.497L220 413.997V366.997H264L242 390.497Z" fill="#FF6523"/>
<path d="M242 390.5L264 367V414H220L242 390.5Z" fill="#FF5A13"/>
<rect x="264.756" y="191.718" width="43.6271" height="44.1065" transform="rotate(-180 264.756 191.718)" fill="#FF6523"/>
<rect x="263.756" y="103.718" width="43.6271" height="44.1065" transform="rotate(-180 263.756 103.718)" fill="#FF6523"/>
<rect x="264.756" y="15.7183" width="44" height="15" transform="rotate(-180 264.756 15.7183)" fill="#FF6523"/>
<rect x="220.756" y="235.718" width="43.6271" height="44.1065" transform="rotate(-180 220.756 235.718)" fill="#FF6523"/>
<rect x="219.756" y="147.718" width="43.6271" height="44.1065" transform="rotate(-180 219.756 147.718)" fill="#FF6523"/>
<rect x="220.756" y="59.7183" width="43.6271" height="44.1065" transform="rotate(-180 220.756 59.7183)" fill="#FF6523"/>
<rect x="221" y="147" width="20" height="20" fill="#FF4C00"/>
</svg>
